{
    "accessors": {
        "accessor_127": {
            "bufferView": "bufferView_138",
            "byteOffset": 0,
            "byteStride": 0,
            "componentType": 5123,
            "count": 2304,
            "type": "SCALAR"
        },
        "accessor_130": {
            "bufferView": "bufferView_138",
            "byteOffset": 4608,
            "byteStride": 0,
            "componentType": 5123,
            "count": 2304,
            "type": "SCALAR"
        },
        "accessor_132": {
            "bufferView": "bufferView_139",
            "byteOffset": 0,
            "byteStride": 12,
            "componentType": 5126,
            "count": 586,
            "max": [
                0.4277999997138977,
                0.4277999997138977,
                1.058000087738037
            ],
            "min": [
                -0.4277999997138977,
                -0.4277999997138977,
                -1.058000087738037
            ],
            "type": "VEC3"
        },
        "accessor_134": {
            "bufferView": "bufferView_139",
            "byteOffset": 7032,
            "byteStride": 2,
            "componentType": 5120,
            "count": 586,
            "max": [
                127,
                127
            ],
            "min": [
                -127,
                -127
            ],
            "type": "VEC2"
        },
        "accessor_136": {
            "bufferView": "bufferView_139",
            "byteOffset": 8204,
            "byteStride": 6,
            "componentType": 5122,
            "count": 586,
            "max": [
                32559,
                32425,
                -32766
            ],
            "min": [
                19827,
                297,
                -32766
            ],
            "type": "VEC3"
        },
        "accessor_29": {
            "bufferView": "bufferView_138",
            "byteOffset": 19680,
            "byteStride": 0,
            "componentType": 5123,
            "count": 168,
            "type": "SCALAR"
        },
        "accessor_31": {
            "bufferView": "bufferView_139",
            "byteOffset": 48840,
            "byteStride": 12,
            "componentType": 5126,
            "count": 72,
            "max": [
                1.6011799573898315,
                2.3545398712158203,
                1.3960000276565552
            ],
            "min": [
                0.22884999215602875,
                1.631850004196167,
                -1.3960000276565552
            ],
            "type": "VEC3"
        },
        "accessor_33": {
            "bufferView": "bufferView_139",
            "byteOffset": 49704,
            "byteStride": 2,
            "componentType": 5120,
            "count": 72,
            "max": [
                127,
                127
            ],
            "min": [
                -127,
                0
            ],
            "type": "VEC2"
        },
        "accessor_35": {
            "bufferView": "bufferView_139",
            "byteOffset": 49848,
            "byteStride": 6,
            "componentType": 5122,
            "count": 72,
            "max": [
                29128,
                32293,
                -32766
            ],
            "min": [
                264,
                15498,
                -32766
            ],
            "type": "VEC3"
        },
        "accessor_56": {
            "bufferView": "bufferView_138",
            "byteOffset": 9216,
            "byteStride": 0,
            "componentType": 5123,
            "count": 5232,
            "type": "SCALAR"
        },
        "accessor_58": {
            "bufferView": "bufferView_139",
            "byteOffset": 11720,
            "byteStride": 12,
            "componentType": 5126,
            "count": 1856,
            "max": [
                2.438000202178955,
                2.5843698978424072,
                1.3960000276565552
            ],
            "min": [
                -2.4309098720550537,
                0.2667999863624573,
                -1.3960000276565552
            ],
            "type": "VEC3"
        },
        "accessor_60": {
            "bufferView": "bufferView_139",
            "byteOffset": 33992,
            "byteStride": 2,
            "componentType": 5120,
            "count": 1856,
            "max": [
                127,
                127
            ],
            "min": [
                -127,
                -127
            ],
            "type": "VEC2"
        },
        "accessor_62": {
            "bufferView": "bufferView_139",
            "byteOffset": 37704,
            "byteStride": 6,
            "componentType": 5122,
            "count": 1856,
            "max": [
                29374,
                32677,
                -32766
            ],
            "min": [
                97,
                514,
                -32766
            ],
            "type": "VEC3"
        },
        "accessor_83": {
            "bufferView": "bufferView_138",
            "byteOffset": 20016,
            "byteStride": 0,
            "componentType": 5123,
            "count": 864,
            "type": "SCALAR"
        },
        "accessor_85": {
            "bufferView": "bufferView_139",
            "byteOffset": 50280,
            "byteStride": 12,
            "componentType": 5126,
            "count": 464,
            "max": [
                1.6226699352264404,
                2.392000198364258,
                1.100000023841858
            ],
            "min": [
                0.1931999921798706,
                1.5961999893188477,
                -1.1100000143051147
            ],
            "type": "VEC3"
        },
        "accessor_87": {
            "bufferView": "bufferView_139",
            "byteOffset": 55848,
            "byteStride": 2,
            "componentType": 5120,
            "count": 464,
            "max": [
                127,
                127
            ],
            "min": [
                -127,
                -127
            ],
            "type": "VEC2"
        },
        "accessor_89": {
            "bufferView": "bufferView_139",
            "byteOffset": 56776,
            "byteStride": 6,
            "componentType": 5122,
            "count": 464,
            "max": [
                22199,
                26563,
                -32766
            ],
            "min": [
                172,
                15359,
                -32766
            ],
            "type": "VEC3"
        },
        "animAccessor_0": {
            "bufferView": "bufferView_137",
            "byteOffset": 0,
            "componentType": 5126,
            "count": 31,
            "type": "SCALAR"
        },
        "animAccessor_1": {
            "bufferView": "bufferView_137",
            "byteOffset": 124,
            "componentType": 5126,
            "count": 31,
            "type": "VEC4"
        }
    },
    "animations": {
        "animation_0": {
            "channels": [
                {
                    "sampler": "animation_0_rotation_sampler",
                    "target": {
                        "id": "Geometry-mesh001Node",
                        "path": "rotation"
                    }
                }
            ],
            "parameters": {
                "TIME": "animAccessor_0",
                "rotation": "animAccessor_1"
            },
            "samplers": {
                "animation_0_rotation_sampler": {
                    "input": "TIME",
                    "interpolation": "LINEAR",
                    "output": "rotation"
                }
            }
        },
        "animation_1": {
            "channels": [
                {
                    "sampler": "animation_1_rotation_sampler",
                    "target": {
                        "id": "meshInst962Node",
                        "path": "rotation"
                    }
                }
            ],
            "parameters": {
                "TIME": "animAccessor_0",
                "rotation": "animAccessor_1"
            },
            "samplers": {
                "animation_1_rotation_sampler": {
                    "input": "TIME",
                    "interpolation": "LINEAR",
                    "output": "rotation"
                }
            }
        }
    },
    "asset": {
        "generator": "collada2gltf@",
        "premultipliedAlpha": true,
        "profile": {
            "api": "WebGL",
            "version": "1.0.2"
        },
        "version": "1.0"
    },
    "bufferViews": {
        "bufferView_137": {
            "buffer": "CesiumMilkTruck",
            "byteLength": 620,
            "byteOffset": 0
        },
        "bufferView_138": {
            "buffer": "CesiumMilkTruck",
            "byteLength": 21744,
            "byteOffset": 620,
            "target": 34963
        },
        "bufferView_139": {
            "buffer": "CesiumMilkTruck",
            "byteLength": 59560,
            "byteOffset": 22364,
            "target": 34962
        }
    },
    "buffers": {
        "CesiumMilkTruck": {
            "byteLength": 81924,
            "type": "arraybuffer",
            "uri": "data:application/octet-stream;base64,"
        }
    },
    "images": {
        "Image0001": {
            "name": "Image0001",
            "uri": "data:image/jpg;base64,"
	    }
    },
    "materials": {
        "Effect-glass": {
            "name": "glass",
            "technique": "technique0",
            "values": {
                "diffuse": [
                    0,
                    0.04050629958510399,
                    0.021240700036287308,
                    1
                ],
                "shininess": 256,
                "specular": [
                    0.6499999761581421,
                    0.6499999761581421,
                    0.6499999761581421,
                    1
                ]
            }
        },
        "Effect-truck": {
            "name": "truck",
            "technique": "technique1",
            "values": {
                "diffuse": "texture_Image0001",
                "shininess": 256,
                "specular": [
                    0.03999999910593033,
                    0.03999999910593033,
                    0.03999999910593033,
                    1
                ]
            }
        },
        "Effect-wheels": {
            "name": "wheels",
            "technique": "technique1",
            "values": {
                "diffuse": "texture_Image0001",
                "shininess": 256,
                "specular": [
                    0.03999999910593033,
                    0.03999999910593033,
                    0.03999999910593033,
                    1
                ]
            }
        },
        "Effect-window_trim": {
            "name": "window_trim",
            "technique": "technique0",
            "values": {
                "diffuse": [
                    0.06400000303983688,
                    0.06400000303983688,
                    0.06400000303983688,
                    1
                ],
                "shininess": 256,
                "specular": [
                    0.03999999910593033,
                    0.03999999910593033,
                    0.03999999910593033,
                    1
                ]
            }
        }
    },
    "meshes": {
        "Geometry-mesh001": {
            "name": "Wheels",
            "primitives": [
                {
                    "attributes": {
                        "NORMAL": "accessor_134",
                        "POSITION": "accessor_132",
                        "TEXCOORD_0": "accessor_136"
                    },
                    "indices": "accessor_127",
                    "material": "Effect-wheels",
                    "mode": 4
                },
                {
                    "attributes": {
                        "NORMAL": "accessor_134",
                        "POSITION": "accessor_132",
                        "TEXCOORD_0": "accessor_136"
                    },
                    "indices": "accessor_130",
                    "material": "Effect-wheels",
                    "mode": 4
                }
            ]
        },
        "Geometry-mesh002": {
            "name": "Cesium_Milk_Truck",
            "primitives": [
                {
                    "attributes": {
                        "NORMAL": "accessor_60",
                        "POSITION": "accessor_58",
                        "TEXCOORD_0": "accessor_62"
                    },
                    "indices": "accessor_56",
                    "material": "Effect-truck",
                    "mode": 4
                }
            ]
        },
        "Geometry-mesh002-dup-0": {
            "name": "Geometry-mesh002-dup-0",
            "primitives": [
                {
                    "attributes": {
                        "NORMAL": "accessor_33",
                        "POSITION": "accessor_31",
                        "TEXCOORD_0": "accessor_35"
                    },
                    "indices": "accessor_29",
                    "material": "Effect-glass",
                    "mode": 4
                }
            ]
        },
        "Geometry-mesh002-dup-1": {
            "name": "Geometry-mesh002-dup-1",
            "primitives": [
                {
                    "attributes": {
                        "NORMAL": "accessor_87",
                        "POSITION": "accessor_85",
                        "TEXCOORD_0": "accessor_89"
                    },
                    "indices": "accessor_83",
                    "material": "Effect-window_trim",
                    "mode": 4
                }
            ]
        }
    },
    "nodes": {
        "Geometry-mesh001Node": {
            "children": [
                "node_7"
            ],
            "name": "Wheels",
            "rotation": [
                0,
                0,
                -0.08848562836647034,
                0.9960774779319763
            ],
            "scale": [
                1,
                1,
                1
            ],
            "translation": [
                1.432669997215271,
                0.4277220070362091,
                -0.0000000298022992950564
            ]
        },
        "meshInst962Node": {
            "children": [
                "node_5"
            ],
            "name": "Wheels__2_",
            "rotation": [
                0,
                0,
                -0.08848562836647034,
                0.9960774779319763
            ],
            "scale": [
                1,
                1,
                1
            ],
            "translation": [
                -1.352329969406128,
                0.4277220070362091,
                -0.0000000298022992950564
            ]
        },
        "node_1": {
            "children": [],
            "matrix": [
                1,
                0,
                0,
                0,
                0,
                1,
                0,
                0,
                0,
                0,
                1,
                0,
                0,
                0,
                0,
                1
            ],
            "meshes": [
                "Geometry-mesh002-dup-0"
            ],
            "name": ""
        },
        "node_2": {
            "children": [],
            "matrix": [
                1,
                0,
                0,
                0,
                0,
                1,
                0,
                0,
                0,
                0,
                1,
                0,
                0,
                0,
                0,
                1
            ],
            "meshes": [
                "Geometry-mesh002"
            ],
            "name": ""
        },
        "node_3": {
            "children": [],
            "matrix": [
                1,
                0,
                0,
                0,
                0,
                1,
                0,
                0,
                0,
                0,
                1,
                0,
                0,
                0,
                0,
                1
            ],
            "meshes": [
                "Geometry-mesh002-dup-1"
            ],
            "name": ""
        },
        "node_5": {
            "children": [],
            "matrix": [
                1,
                0,
                0,
                0,
                0,
                1,
                0,
                0,
                0,
                0,
                1,
                0,
                0,
                0,
                0,
                1
            ],
            "meshes": [
                "Geometry-mesh001"
            ],
            "name": ""
        },
        "node_7": {
            "children": [],
            "matrix": [
                1,
                0,
                0,
                0,
                0,
                1,
                0,
                0,
                0,
                0,
                1,
                0,
                0,
                0,
                0,
                1
            ],
            "meshes": [
                "Geometry-mesh001"
            ],
            "name": ""
        },
        "polyRender006": {
            "children": [],
            "matrix": [
                1,
                0,
                0,
                0,
                0,
                1,
                0,
                0,
                0,
                0,
                1,
                0,
                0,
                0,
                0,
                1
            ],
            "name": "Render"
        }
    },
    "programs": {
        "program_0": {
            "attributes": [
                "a_normal",
                "a_position"
            ],
            "fragmentShader": "CesiumMilkTruck0FS",
            "vertexShader": "CesiumMilkTruck0VS"
        },
        "program_1": {
            "attributes": [
                "a_normal",
                "a_position",
                "a_texcoord0"
            ],
            "fragmentShader": "CesiumMilkTruck1FS",
            "vertexShader": "CesiumMilkTruck1VS"
        }
    },
    "samplers": {
        "sampler_0": {
            "magFilter": 9729,
            "minFilter": 9987,
            "wrapS": 10497,
            "wrapT": 10497
        }
    },
    "scene": "defaultScene",
    "scenes": {
        "defaultScene": {
            "nodes": [
                "polyRender006",
                "node_1",
                "node_2",
                "node_3",
                "meshInst962Node",
                "Geometry-mesh001Node"
            ]
        }
    },
    "shaders": {
        "CesiumMilkTruck0FS": {
            "type": 35632,
            "uri": "data:text/plain;base64,"
        },
        "CesiumMilkTruck0VS": {
            "type": 35633,
            "uri": "data:text/plain;base64,"
        },
        "CesiumMilkTruck1FS": {
            "type": 35632,
            "uri": "data:text/plain;base64,"
        },
        "CesiumMilkTruck1VS": {
            "type": 35633,
            "uri": "data:text/plain;base64,"
        }
    },
    "skins": {},
    "techniques": {
        "technique0": {
            "attributes": {
                "a_normal": "normal",
                "a_position": "position"
            },
            "parameters": {
                "diffuse": {
                    "type": 35666
                },
                "modelViewMatrix": {
                    "semantic": "MODELVIEW",
                    "type": 35676
                },
                "normal": {
                    "semantic": "NORMAL",
                    "type": 35665
                },
                "normalMatrix": {
                    "semantic": "MODELVIEWINVERSETRANSPOSE",
                    "type": 35675
                },
                "position": {
                    "semantic": "POSITION",
                    "type": 35665
                },
                "projectionMatrix": {
                    "semantic": "PROJECTION",
                    "type": 35676
                },
                "shininess": {
                    "type": 5126
                },
                "specular": {
                    "type": 35666
                }
            },
            "program": "program_0",
            "states": {
                "enable": [
                    2929,
                    2884
                ]
            },
            "uniforms": {
                "u_diffuse": "diffuse",
                "u_modelViewMatrix": "modelViewMatrix",
                "u_normalMatrix": "normalMatrix",
                "u_projectionMatrix": "projectionMatrix",
                "u_shininess": "shininess",
                "u_specular": "specular"
            }
        },
        "technique1": {
            "attributes": {
                "a_normal": "normal",
                "a_position": "position",
                "a_texcoord0": "texcoord0"
            },
            "parameters": {
                "diffuse": {
                    "type": 35678
                },
                "modelViewMatrix": {
                    "semantic": "MODELVIEW",
                    "type": 35676
                },
                "normal": {
                    "semantic": "NORMAL",
                    "type": 35665
                },
                "normalMatrix": {
                    "semantic": "MODELVIEWINVERSETRANSPOSE",
                    "type": 35675
                },
                "position": {
                    "semantic": "POSITION",
                    "type": 35665
                },
                "projectionMatrix": {
                    "semantic": "PROJECTION",
                    "type": 35676
                },
                "shininess": {
                    "type": 5126
                },
                "specular": {
                    "type": 35666
                },
                "texcoord0": {
                    "semantic": "TEXCOORD_0",
                    "type": 35664
                }
            },
            "program": "program_1",
            "states": {
                "enable": [
                    2929,
                    2884
                ]
            },
            "uniforms": {
                "u_diffuse": "diffuse",
                "u_modelViewMatrix": "modelViewMatrix",
                "u_normalMatrix": "normalMatrix",
                "u_projectionMatrix": "projectionMatrix",
                "u_shininess": "shininess",
                "u_specular": "specular"
            }
        }
    },
    "textures": {
        "texture_Image0001": {
            "format": 6408,
            "internalFormat": 6408,
            "sampler": "sampler_0",
            "source": "Image0001",
            "target": 3553,
            "type": 5121
        }
    }
}